<?xml version="1.0" encoding="utf-8"?>
<!-- Generator: Adobe Illustrator 22.0.1, SVG Export Plug-In . SVG Version: 6.00 Build 0)  -->
<svg version="1.1" id="Capa_1" xmlns="http://www.w3.org/2000/svg" xmlns:xlink="http://www.w3.org/1999/xlink" x="0px" y="0px"
	 viewBox="0 0 268 296.1" style="enable-background:new 0 0 268 296.1;" xml:space="preserve">
<style type="text/css">
	.st0{fill:#FFFFFF;}
</style>
<g>
	<g>
		<path class="st0" d="M185.8,141.1c-0.3-0.3-0.5-0.6-0.7-0.8c-30.4,12-59,28.6-84.5,48.9c1,3.2,0.3,6.9-2.3,9.5
			c-0.4,0.4-0.8,0.7-1.2,0.9c10.2,28.3,25.7,54.7,45.5,77.4l60.1-60.1l42.5-42.5c-14.3-12.6-29.8-23.7-46.3-33.2
			C195.4,144.8,189.5,144.8,185.8,141.1z"/>
	</g>
	<g>
		<path class="st0" d="M201.6,136.5c16.9,9.7,32.8,21.1,47.5,34.1l4.5-4.5c9.9-9.9,9.9-26.1,0-36l-7.2-7.2
			c-15.1,2.7-30,6.6-44.6,11.5C201.8,135,201.8,135.7,201.6,136.5z"/>
	</g>
	<g>
		<path class="st0" d="M183.2,135.3c-0.1-0.8-0.1-1.7,0.1-2.5c-18-8.9-36.9-15.9-56.5-20.8c-12.2-3.1-24.6-5.3-37-6.7
			c-0.4,1.3-1.2,2.5-2.2,3.6c-1.3,1.3-2.9,2.1-4.5,2.5c-0.5,16.7,0.8,33.5,3.8,50.1c1.3,7.2,3,14.3,5,21.3c2,0,4,0.7,5.7,2
			C123.4,164.2,152.4,147.4,183.2,135.3z"/>
	</g>
	<g>
		<path class="st0" d="M72.4,98.4c0.5-1,1.1-2,1.9-2.8c1.3-1.3,2.9-2.1,4.5-2.5c1.1-11.1,2.9-22.1,5.5-32.9L65.2,79.2L46.2,98.1
			C54.9,97.8,63.7,97.9,72.4,98.4z"/>
	</g>
	<g>
		<path class="st0" d="M138.9,280.8c-20.4-23.3-36.3-50.3-46.8-79.4c-1.6,0.1-3.3-0.3-4.7-1.1c-6.9,6.1-13.5,12.4-19.8,19.1
			l66.4,66.4L138.9,280.8z"/>
	</g>
	<g>
		<path class="st0" d="M83.5,196.5c-1.9-3.6-1.4-8.1,1.6-11.1c0.5-0.5,1-0.9,1.5-1.2c-2-7.2-3.7-14.5-5.1-21.9
			c-3.1-17-4.4-34.2-3.9-51.4c-1.2-0.5-2.3-1.2-3.3-2.1c-1.4-1.4-2.3-3.2-2.6-5.1c-10.4-0.5-20.7-0.5-31.1,0.1l-26.3,26.3
			c-9.9,9.9-9.9,26.1,0,36l49.4,49.4c1.8-1.9,3.7-3.8,5.5-5.7C73.9,205.2,78.7,200.8,83.5,196.5z"/>
	</g>
	<g>
		<path class="st0" d="M87.5,95.5c1.2,1.2,2,2.7,2.4,4.3c12.8,1.4,25.6,3.7,38.1,6.9c20,5,39.3,12.2,57.7,21.3c0,0,0-0.1,0.1-0.1
			c3.7-3.7,9.6-3.7,13.3,0c0.4,0.4,0.7,0.8,1,1.3c13.7-4.6,27.6-8.3,41.7-11l-39-39L134,10.4L91.8,52.6c-3.7,13.4-6.3,27-7.7,40.8
			C85.4,93.8,86.6,94.5,87.5,95.5z"/>
	</g>
</g>
</svg>
