<svg id="Capa_1" data-name="Capa 1" xmlns="http://www.w3.org/2000/svg" viewBox="0 0 591.84 157.87"><defs><style>.cls-1{fill:#323232;}</style></defs><title>logotipo</title><path class="cls-1" d="M140.21,76.41a2.88,2.88,0,0,1-.28-.33A133.32,133.32,0,0,0,106,95.69a3.75,3.75,0,0,1-.91,3.8,3.26,3.26,0,0,1-.47.38,97.77,97.77,0,0,0,18.28,31L147,106.82l17.05-17A114.4,114.4,0,0,0,145.5,76.44,3.76,3.76,0,0,1,140.21,76.41Z"/><path class="cls-1" d="M146.54,74.53a116.55,116.55,0,0,1,19.07,13.7l1.82-1.82a10.22,10.22,0,0,0,0-14.45l-2.9-2.89a127.85,127.85,0,0,0-17.91,4.59A3.57,3.57,0,0,1,146.54,74.53Z"/><path class="cls-1" d="M139.14,74.06a3.79,3.79,0,0,1,0-1A112.61,112.61,0,0,0,101.64,62a3.63,3.63,0,0,1-.88,1.43,3.7,3.7,0,0,1-1.82,1,96.84,96.84,0,0,0,1.54,20.09c.53,2.89,1.2,5.74,2,8.56a3.77,3.77,0,0,1,2.29.82A135.89,135.89,0,0,1,139.14,74.06Z"/><path class="cls-1" d="M94.67,59.24a3.64,3.64,0,0,1,2.59-2.13,98.51,98.51,0,0,1,2.19-13.22l-7.67,7.67-7.6,7.6C87.67,59,91.17,59.06,94.67,59.24Z"/><path class="cls-1" d="M121.38,132.46a100,100,0,0,1-18.79-31.88,3.66,3.66,0,0,1-1.9-.44c-2.75,2.44-5.41,5-7.94,7.65l26.65,26.65Z"/><path class="cls-1" d="M99.15,98.61a3.74,3.74,0,0,1,.64-4.44,3.14,3.14,0,0,1,.6-.49c-.81-2.89-1.5-5.82-2-8.78a99.24,99.24,0,0,1-1.58-20.62,3.86,3.86,0,0,1-1.32-.86,3.73,3.73,0,0,1-1-2,113,113,0,0,0-12.48,0L71.38,72a10.21,10.21,0,0,0,0,14.46l19.83,19.83c.73-.77,1.46-1.53,2.21-2.28C95.27,102.12,97.19,100.35,99.15,98.61Z"/><path class="cls-1" d="M100.76,58.1a3.7,3.7,0,0,1,1,1.72A112.73,112.73,0,0,1,117,62.58a115.6,115.6,0,0,1,23.15,8.55l0,0a3.76,3.76,0,0,1,5.32,0,4.06,4.06,0,0,1,.42.51,131,131,0,0,1,16.72-4.39L147,51.56,119.4,23.94,102.48,40.86A98.12,98.12,0,0,0,99.4,57.24,3.73,3.73,0,0,1,100.76,58.1Z"/><path class="cls-1" d="M205.45,84.54H192.29V107.2h-7.43v-56h18.55q9.47,0,14.56,4.31T223.07,68a15.11,15.11,0,0,1-2.82,9.12A16.88,16.88,0,0,1,212.37,83l13.17,23.78v.46h-7.93Zm-13.16-6h11.35a15.22,15.22,0,0,0,5.25-.83,11,11,0,0,0,3.75-2.23,8.91,8.91,0,0,0,2.25-3.31,10.91,10.91,0,0,0,.76-4.1,12.83,12.83,0,0,0-.72-4.41,8.61,8.61,0,0,0-2.21-3.4,10.15,10.15,0,0,0-3.81-2.2,17.54,17.54,0,0,0-5.5-.77H192.29Z"/><path class="cls-1" d="M266.36,81.31H242.07v19.85h28.21v6H234.69v-56H269.9v6.08H242.07v18h24.29Z"/><path class="cls-1" d="M288.13,85.27V107.2h-7.39v-56h20.67a25.75,25.75,0,0,1,8.42,1.27A17.37,17.37,0,0,1,316,56a15.1,15.1,0,0,1,3.77,5.43A17.88,17.88,0,0,1,321,68.3a19,19,0,0,1-1.29,7.21A13.71,13.71,0,0,1,316,80.84a16.64,16.64,0,0,1-6.14,3.29,28.26,28.26,0,0,1-8.42,1.14Zm0-6h13.28a17,17,0,0,0,5.56-.81,10.2,10.2,0,0,0,3.81-2.25A8.81,8.81,0,0,0,313,72.74a13.18,13.18,0,0,0,.7-4.37,12.85,12.85,0,0,0-.7-4.17,9.6,9.6,0,0,0-2.17-3.56A10.55,10.55,0,0,0,307,58.18a15,15,0,0,0-5.56-.93H288.13Z"/><path class="cls-1" d="M374.82,81a37.1,37.1,0,0,1-1.59,11.29,25,25,0,0,1-4.53,8.49,19.39,19.39,0,0,1-7.08,5.35,22.6,22.6,0,0,1-9.27,1.84,22.22,22.22,0,0,1-9.12-1.84,20.09,20.09,0,0,1-7.16-5.35,25.09,25.09,0,0,1-4.66-8.49A35.85,35.85,0,0,1,329.76,81V77.46a36.13,36.13,0,0,1,1.65-11.3A25.4,25.4,0,0,1,336,57.64a19.83,19.83,0,0,1,7.12-5.37,22.07,22.07,0,0,1,9.12-1.87,22.65,22.65,0,0,1,9.3,1.87,19.55,19.55,0,0,1,7.11,5.37,24.61,24.61,0,0,1,4.55,8.52,37.39,37.39,0,0,1,1.59,11.3Zm-7.35-3.62a34.61,34.61,0,0,0-1-8.85,18.6,18.6,0,0,0-3-6.47,12.85,12.85,0,0,0-4.79-4,14.71,14.71,0,0,0-6.41-1.35A14.19,14.19,0,0,0,346,58.1a13.09,13.09,0,0,0-4.79,4,18.87,18.87,0,0,0-3.06,6.47,32.79,32.79,0,0,0-1.08,8.85V81a32.6,32.6,0,0,0,1.1,8.89,19.51,19.51,0,0,0,3.09,6.48,13,13,0,0,0,4.82,4,14.16,14.16,0,0,0,6.23,1.35,14.7,14.7,0,0,0,6.43-1.35,12.58,12.58,0,0,0,4.75-4,18.79,18.79,0,0,0,2.94-6.48,35.39,35.39,0,0,0,1-8.89Z"/><path class="cls-1" d="M407.72,84.54H394.56V107.2h-7.43v-56h18.55q9.46,0,14.56,4.31T425.34,68a15.11,15.11,0,0,1-2.82,9.12A16.9,16.9,0,0,1,414.65,83l13.16,23.78v.46h-7.93Zm-13.16-6h11.35a15.22,15.22,0,0,0,5.25-.83,11,11,0,0,0,3.75-2.23,8.91,8.91,0,0,0,2.25-3.31,10.91,10.91,0,0,0,.76-4.1,12.83,12.83,0,0,0-.72-4.41,8.61,8.61,0,0,0-2.21-3.4,10.15,10.15,0,0,0-3.81-2.2,17.54,17.54,0,0,0-5.5-.77H394.56Z"/><path class="cls-1" d="M472.59,57.25h-18v50h-7.35V57.25h-18V51.17h43.33Z"/><path class="cls-1" d="M509.72,92.5a7.76,7.76,0,0,0-.42-2.63,5.22,5.22,0,0,0-1.64-2.18,15.11,15.11,0,0,0-3.35-2,52.87,52.87,0,0,0-5.52-2,66.24,66.24,0,0,1-7.25-2.77,26.92,26.92,0,0,1-6-3.64,16,16,0,0,1-4-4.83,13.16,13.16,0,0,1-1.48-6.38,13.54,13.54,0,0,1,1.52-6.41,14.43,14.43,0,0,1,4.27-4.95,21.07,21.07,0,0,1,6.54-3.17,28.88,28.88,0,0,1,8.33-1.14,26.28,26.28,0,0,1,8.47,1.29,19.36,19.36,0,0,1,6.5,3.6,16,16,0,0,1,4.16,5.48,16.37,16.37,0,0,1,1.46,6.95H509.76a9.35,9.35,0,0,0-.56-3.27,6.63,6.63,0,0,0-1.71-2.58,7.94,7.94,0,0,0-2.89-1.67,12.44,12.44,0,0,0-4.08-.6,13.93,13.93,0,0,0-3.94.5,7.91,7.91,0,0,0-2.77,1.39,5.85,5.85,0,0,0-1.66,2.07,6,6,0,0,0-.56,2.54,5.46,5.46,0,0,0,2.83,4.64,31.58,31.58,0,0,0,8.29,3.48,54.83,54.83,0,0,1,8.07,3.16,23.81,23.81,0,0,1,5.81,3.93,15,15,0,0,1,3.52,4.92,15.44,15.44,0,0,1,1.19,6.2A14.57,14.57,0,0,1,519.86,99a13.5,13.5,0,0,1-4.1,4.86,19.27,19.27,0,0,1-6.41,3,31,31,0,0,1-8.37,1,32.48,32.48,0,0,1-5.54-.48,26.53,26.53,0,0,1-5.29-1.48,23.29,23.29,0,0,1-4.68-2.5,17.51,17.51,0,0,1-3.75-3.54,16.06,16.06,0,0,1-2.5-4.64,17.47,17.47,0,0,1-.9-5.75H489.9a10.33,10.33,0,0,0,.81,4.31A7.47,7.47,0,0,0,493,96.76a9.29,9.29,0,0,0,3.48,1.59,18.79,18.79,0,0,0,4.54.5,14,14,0,0,0,3.89-.48A7.91,7.91,0,0,0,507.6,97a5.19,5.19,0,0,0,1.6-2A6.08,6.08,0,0,0,509.72,92.5Z"/></svg>